<mxfile host="app.diagrams.net" agent="Mozilla/5.0 (Windows NT 10.0; Win64; x64; rv:139.0) Gecko/20100101 Firefox/139.0" version="27.1.6">
  <diagram name="PÃ¡gina-1" id="vyTau0bZgFVx9bEcydUV">
    <mxGraphModel dx="1183" dy="749" grid="1" gridSize="10" guides="1" tooltips="1" connect="1" arrows="1" fold="1" page="1" pageScale="1" pageWidth="1600" pageHeight="1200" background="light-dark(#FFFFFF,#FFFFFF)" math="0" shadow="0">
      <root>
        <mxCell id="0" />
        <mxCell id="1" parent="0" />
        <mxCell id="H6Oon9mDKoxW9bWXJ_qD-19" value="AWS Cloud" style="sketch=0;outlineConnect=0;gradientColor=none;html=1;whiteSpace=wrap;fontSize=12;fontStyle=0;shape=mxgraph.aws4.group;grIcon=mxgraph.aws4.group_aws_cloud;strokeColor=light-dark(#000000,#000000);fillColor=light-dark(#FFFFFF,#FFFFFF);verticalAlign=top;align=left;spacingLeft=30;fontColor=light-dark(#000000,#000000);dashed=0;strokeWidth=1;" parent="1" vertex="1">
          <mxGeometry x="320" y="40" width="1240" height="920" as="geometry" />
        </mxCell>
        <mxCell id="H6Oon9mDKoxW9bWXJ_qD-20" value="Region: us-east-1" style="points=[[0,0],[0.25,0],[0.5,0],[0.75,0],[1,0],[1,0.25],[1,0.5],[1,0.75],[1,1],[0.75,1],[0.5,1],[0.25,1],[0,1],[0,0.75],[0,0.5],[0,0.25]];outlineConnect=0;gradientColor=none;html=1;whiteSpace=wrap;fontSize=12;fontStyle=0;container=1;pointerEvents=0;collapsible=0;recursiveResize=0;shape=mxgraph.aws4.group;grIcon=mxgraph.aws4.group_region;strokeColor=#00A4A6;fillColor=light-dark(#FFFFFF,#FFFFFF);verticalAlign=top;align=left;spacingLeft=30;fontColor=#147EBA;dashed=1;" parent="1" vertex="1">
          <mxGeometry x="360" y="95" width="1160" height="825" as="geometry" />
        </mxCell>
        <mxCell id="H6Oon9mDKoxW9bWXJ_qD-22" value="VPC" style="points=[[0,0],[0.25,0],[0.5,0],[0.75,0],[1,0],[1,0.25],[1,0.5],[1,0.75],[1,1],[0.75,1],[0.5,1],[0.25,1],[0,1],[0,0.75],[0,0.5],[0,0.25]];outlineConnect=0;gradientColor=none;html=1;whiteSpace=wrap;fontSize=12;fontStyle=0;container=1;pointerEvents=0;collapsible=0;recursiveResize=0;shape=mxgraph.aws4.group;grIcon=mxgraph.aws4.group_vpc2;strokeColor=#8C4FFF;fillColor=none;verticalAlign=top;align=left;spacingLeft=30;fontColor=#AAB7B8;dashed=0;" parent="H6Oon9mDKoxW9bWXJ_qD-20" vertex="1">
          <mxGeometry x="20" y="80" width="980" height="330" as="geometry" />
        </mxCell>
        <mxCell id="H6Oon9mDKoxW9bWXJ_qD-47" value="" style="sketch=0;points=[[0,0,0],[0.25,0,0],[0.5,0,0],[0.75,0,0],[1,0,0],[0,1,0],[0.25,1,0],[0.5,1,0],[0.75,1,0],[1,1,0],[0,0.25,0],[0,0.5,0],[0,0.75,0],[1,0.25,0],[1,0.5,0],[1,0.75,0]];outlineConnect=0;fontColor=#232F3E;fillColor=#7AA116;strokeColor=#ffffff;dashed=0;verticalLabelPosition=bottom;verticalAlign=top;align=center;html=1;fontSize=12;fontStyle=0;aspect=fixed;shape=mxgraph.aws4.resourceIcon;resIcon=mxgraph.aws4.s3;" parent="H6Oon9mDKoxW9bWXJ_qD-20" vertex="1">
          <mxGeometry x="470.00000000000006" y="605" width="78" height="78" as="geometry" />
        </mxCell>
        <mxCell id="H6Oon9mDKoxW9bWXJ_qD-49" value="projetocompras-dsm-hml" style="text;html=1;align=center;verticalAlign=middle;whiteSpace=wrap;rounded=0;fontSize=20;fontColor=light-dark(#000000,#000000);" parent="H6Oon9mDKoxW9bWXJ_qD-20" vertex="1">
          <mxGeometry x="470" y="695" width="82" height="30" as="geometry" />
        </mxCell>
        <mxCell id="H6Oon9mDKoxW9bWXJ_qD-73" style="edgeStyle=orthogonalEdgeStyle;rounded=0;orthogonalLoop=1;jettySize=auto;html=1;fillColor=#0050ef;strokeColor=#001DBC;dashed=1;strokeWidth=4;" parent="H6Oon9mDKoxW9bWXJ_qD-20" source="H6Oon9mDKoxW9bWXJ_qD-52" target="H6Oon9mDKoxW9bWXJ_qD-46" edge="1">
          <mxGeometry relative="1" as="geometry">
            <Array as="points">
              <mxPoint x="1080" y="275" />
              <mxPoint x="1080" y="275" />
            </Array>
          </mxGeometry>
        </mxCell>
        <mxCell id="H6Oon9mDKoxW9bWXJ_qD-52" value="" style="sketch=0;outlineConnect=0;fontColor=#232F3E;gradientColor=none;fillColor=#DD344C;strokeColor=none;dashed=0;verticalLabelPosition=bottom;verticalAlign=top;align=center;html=1;fontSize=12;fontStyle=0;aspect=fixed;pointerEvents=1;shape=mxgraph.aws4.identity_access_management_iam_roles_anywhere;" parent="H6Oon9mDKoxW9bWXJ_qD-20" vertex="1">
          <mxGeometry x="1050" y="95" width="78" height="78" as="geometry" />
        </mxCell>
        <mxCell id="H6Oon9mDKoxW9bWXJ_qD-46" value="" style="sketch=0;points=[[0,0,0],[0.25,0,0],[0.5,0,0],[0.75,0,0],[1,0,0],[0,1,0],[0.25,1,0],[0.5,1,0],[0.75,1,0],[1,1,0],[0,0.25,0],[0,0.5,0],[0,0.75,0],[1,0.25,0],[1,0.5,0],[1,0.75,0]];points=[[0,0,0],[0.25,0,0],[0.5,0,0],[0.75,0,0],[1,0,0],[0,1,0],[0.25,1,0],[0.5,1,0],[0.75,1,0],[1,1,0],[0,0.25,0],[0,0.5,0],[0,0.75,0],[1,0.25,0],[1,0.5,0],[1,0.75,0]];outlineConnect=0;fontColor=#232F3E;fillColor=#E7157B;strokeColor=#ffffff;dashed=0;verticalLabelPosition=bottom;verticalAlign=top;align=center;html=1;fontSize=12;fontStyle=0;aspect=fixed;shape=mxgraph.aws4.resourceIcon;resIcon=mxgraph.aws4.cloudwatch_2;" parent="H6Oon9mDKoxW9bWXJ_qD-20" vertex="1">
          <mxGeometry x="1040" y="367" width="78" height="78" as="geometry" />
        </mxCell>
        <mxCell id="H6Oon9mDKoxW9bWXJ_qD-67" value="" style="edgeStyle=orthogonalEdgeStyle;rounded=0;orthogonalLoop=1;jettySize=auto;html=1;fillColor=#d80073;strokeColor=#A50040;strokeWidth=4;" parent="H6Oon9mDKoxW9bWXJ_qD-20" source="H6Oon9mDKoxW9bWXJ_qD-51" target="H6Oon9mDKoxW9bWXJ_qD-45" edge="1">
          <mxGeometry relative="1" as="geometry" />
        </mxCell>
        <mxCell id="H6Oon9mDKoxW9bWXJ_qD-51" value="" style="sketch=0;outlineConnect=0;fontColor=#232F3E;gradientColor=none;fillColor=#DD344C;strokeColor=none;dashed=0;verticalLabelPosition=bottom;verticalAlign=top;align=center;html=1;fontSize=12;fontStyle=0;aspect=fixed;pointerEvents=1;shape=mxgraph.aws4.identity_access_management_iam_roles_anywhere;" parent="H6Oon9mDKoxW9bWXJ_qD-20" vertex="1">
          <mxGeometry x="221" y="445" width="78" height="78" as="geometry" />
        </mxCell>
        <mxCell id="H6Oon9mDKoxW9bWXJ_qD-48" value="projetocompras-dsm-prod" style="text;html=1;align=center;verticalAlign=middle;whiteSpace=wrap;rounded=0;fontSize=20;fontColor=light-dark(#000000,#000000);" parent="H6Oon9mDKoxW9bWXJ_qD-20" vertex="1">
          <mxGeometry x="228" y="695" width="60" height="30" as="geometry" />
        </mxCell>
        <mxCell id="H6Oon9mDKoxW9bWXJ_qD-68" style="edgeStyle=orthogonalEdgeStyle;rounded=0;orthogonalLoop=1;jettySize=auto;html=1;startArrow=classic;startFill=1;dashed=1;dashPattern=8 8;strokeColor=light-dark(#000000,#000000);" parent="H6Oon9mDKoxW9bWXJ_qD-20" source="H6Oon9mDKoxW9bWXJ_qD-45" target="H6Oon9mDKoxW9bWXJ_qD-47" edge="1">
          <mxGeometry relative="1" as="geometry" />
        </mxCell>
        <mxCell id="H6Oon9mDKoxW9bWXJ_qD-45" value="" style="sketch=0;points=[[0,0,0],[0.25,0,0],[0.5,0,0],[0.75,0,0],[1,0,0],[0,1,0],[0.25,1,0],[0.5,1,0],[0.75,1,0],[1,1,0],[0,0.25,0],[0,0.5,0],[0,0.75,0],[1,0.25,0],[1,0.5,0],[1,0.75,0]];outlineConnect=0;fontColor=#232F3E;fillColor=#7AA116;strokeColor=#ffffff;dashed=0;verticalLabelPosition=bottom;verticalAlign=top;align=center;html=1;fontSize=12;fontStyle=0;aspect=fixed;shape=mxgraph.aws4.resourceIcon;resIcon=mxgraph.aws4.s3;" parent="H6Oon9mDKoxW9bWXJ_qD-20" vertex="1">
          <mxGeometry x="221" y="605" width="78" height="78" as="geometry" />
        </mxCell>
        <mxCell id="H6Oon9mDKoxW9bWXJ_qD-69" style="edgeStyle=orthogonalEdgeStyle;rounded=0;orthogonalLoop=1;jettySize=auto;html=1;entryX=0.25;entryY=1;entryDx=0;entryDy=0;entryPerimeter=0;fillColor=#60a917;strokeColor=#2D7600;dashed=1;strokeWidth=4;" parent="H6Oon9mDKoxW9bWXJ_qD-20" source="H6Oon9mDKoxW9bWXJ_qD-47" target="H6Oon9mDKoxW9bWXJ_qD-46" edge="1">
          <mxGeometry relative="1" as="geometry" />
        </mxCell>
        <mxCell id="H6Oon9mDKoxW9bWXJ_qD-70" style="edgeStyle=orthogonalEdgeStyle;rounded=0;orthogonalLoop=1;jettySize=auto;html=1;entryX=0.75;entryY=1;entryDx=0;entryDy=0;entryPerimeter=0;exitX=0.5;exitY=1;exitDx=0;exitDy=0;fillColor=#a20025;strokeColor=#2D7600;dashed=1;strokeWidth=4;" parent="H6Oon9mDKoxW9bWXJ_qD-20" source="H6Oon9mDKoxW9bWXJ_qD-48" target="H6Oon9mDKoxW9bWXJ_qD-46" edge="1">
          <mxGeometry relative="1" as="geometry">
            <mxPoint x="258" y="735" as="sourcePoint" />
            <Array as="points">
              <mxPoint x="258" y="765" />
              <mxPoint x="1089" y="765" />
            </Array>
          </mxGeometry>
        </mxCell>
        <mxCell id="H6Oon9mDKoxW9bWXJ_qD-50" value="" style="edgeStyle=orthogonalEdgeStyle;rounded=0;orthogonalLoop=1;jettySize=auto;html=1;entryX=0;entryY=0.5;entryDx=0;entryDy=0;strokeWidth=4;startArrow=block;startFill=1;fillColor=#f0a30a;strokeColor=light-dark(#BD7000,#BD7000);" parent="1" source="H6Oon9mDKoxW9bWXJ_qD-4" target="H6Oon9mDKoxW9bWXJ_qD-29" edge="1">
          <mxGeometry relative="1" as="geometry">
            <Array as="points">
              <mxPoint x="290" y="140" />
              <mxPoint x="290" y="369" />
            </Array>
          </mxGeometry>
        </mxCell>
        <mxCell id="H6Oon9mDKoxW9bWXJ_qD-4" value="On-Premise" style="sketch=0;outlineConnect=0;gradientColor=none;html=1;whiteSpace=wrap;fontSize=12;fontStyle=0;shape=mxgraph.aws4.group;grIcon=mxgraph.aws4.group_on_premise;strokeColor=#858B94;fillColor=light-dark(#000000,#FEFEFE);verticalAlign=top;align=left;spacingLeft=30;fontColor=#858B94;dashed=0;" parent="1" vertex="1">
          <mxGeometry x="40" y="40" width="200" height="200" as="geometry" />
        </mxCell>
        <mxCell id="H6Oon9mDKoxW9bWXJ_qD-5" value="" style="html=1;verticalLabelPosition=bottom;align=center;labelBackgroundColor=#ffffff;verticalAlign=top;strokeWidth=2;strokeColor=#0080F0;shadow=0;dashed=0;shape=mxgraph.ios7.icons.home;fillColor=none;" parent="1" vertex="1">
          <mxGeometry x="53.89" y="100" width="75.29" height="80" as="geometry" />
        </mxCell>
        <mxCell id="H6Oon9mDKoxW9bWXJ_qD-6" value="" style="verticalLabelPosition=bottom;html=1;verticalAlign=top;align=center;strokeColor=none;fillColor=#00BEF2;shape=mxgraph.azure.computer;pointerEvents=1;" parent="1" vertex="1">
          <mxGeometry x="153.89" y="113.5" width="72.22" height="65" as="geometry" />
        </mxCell>
        <mxCell id="H6Oon9mDKoxW9bWXJ_qD-7" style="edgeStyle=orthogonalEdgeStyle;rounded=0;orthogonalLoop=1;jettySize=auto;html=1;entryX=0.031;entryY=0.415;entryDx=0;entryDy=0;entryPerimeter=0;" parent="1" source="H6Oon9mDKoxW9bWXJ_qD-5" target="H6Oon9mDKoxW9bWXJ_qD-6" edge="1">
          <mxGeometry relative="1" as="geometry" />
        </mxCell>
        <mxCell id="H6Oon9mDKoxW9bWXJ_qD-8" value="" style="rounded=0;whiteSpace=wrap;html=1;strokeColor=light-dark(#000000,#000000);fillColor=light-dark(#FFFFFF,#FFFFFF);" parent="1" vertex="1">
          <mxGeometry x="37.64" y="280" width="202.36" height="400" as="geometry" />
        </mxCell>
        <mxCell id="H6Oon9mDKoxW9bWXJ_qD-9" value="" style="dashed=0;outlineConnect=0;html=1;align=center;labelPosition=center;verticalLabelPosition=bottom;verticalAlign=top;shape=mxgraph.weblogos.mongodb" parent="1" vertex="1">
          <mxGeometry x="60" y="330" width="41.2" height="86.2" as="geometry" />
        </mxCell>
        <mxCell id="H6Oon9mDKoxW9bWXJ_qD-10" value="Ferramentas externas" style="text;html=1;align=center;verticalAlign=middle;whiteSpace=wrap;rounded=0;strokeWidth=1;fontStyle=0;fontSize=16;fontColor=light-dark(#000000,#000000);" parent="1" vertex="1">
          <mxGeometry x="40" y="288" width="198.56" height="20" as="geometry" />
        </mxCell>
        <mxCell id="H6Oon9mDKoxW9bWXJ_qD-12" value="" style="shape=image;html=1;verticalAlign=top;verticalLabelPosition=bottom;labelBackgroundColor=#ffffff;imageAspect=0;aspect=fixed;image=https://cdn4.iconfinder.com/data/icons/ionicons/512/icon-social-github-128.png" parent="1" vertex="1">
          <mxGeometry x="135.29" y="334.1" width="78" height="78" as="geometry" />
        </mxCell>
        <mxCell id="H6Oon9mDKoxW9bWXJ_qD-13" value="" style="shape=image;html=1;verticalAlign=top;verticalLabelPosition=bottom;labelBackgroundColor=#ffffff;imageAspect=0;aspect=fixed;image=https://cdn1.iconfinder.com/data/icons/ionicons-fill-vol-2/512/logo-npm-128.png" parent="1" vertex="1">
          <mxGeometry x="50" y="420" width="70" height="70" as="geometry" />
        </mxCell>
        <mxCell id="H6Oon9mDKoxW9bWXJ_qD-14" value="" style="outlineConnect=0;dashed=0;verticalLabelPosition=bottom;verticalAlign=top;align=center;html=1;shape=mxgraph.aws3.android;fillColor=#8CC64F;gradientColor=none;" parent="1" vertex="1">
          <mxGeometry x="143.66" y="420" width="61.25" height="70" as="geometry" />
        </mxCell>
        <mxCell id="H6Oon9mDKoxW9bWXJ_qD-16" value="" style="shape=image;verticalLabelPosition=bottom;labelBackgroundColor=default;verticalAlign=top;aspect=fixed;imageAspect=0;image=https://img.vivaolinux.com.br/imagens/dicas/comunidade/duckdns.png;" parent="1" vertex="1">
          <mxGeometry x="55" y="500" width="60" height="60" as="geometry" />
        </mxCell>
        <mxCell id="H6Oon9mDKoxW9bWXJ_qD-17" value="" style="shape=image;verticalLabelPosition=bottom;labelBackgroundColor=default;verticalAlign=top;aspect=fixed;imageAspect=0;image=https://butecotecnologico.com.br/images/wp-content/uploads/2016/01/logo_pm2.png;" parent="1" vertex="1">
          <mxGeometry x="101.2" y="510" width="141.99" height="40" as="geometry" />
        </mxCell>
        <mxCell id="H6Oon9mDKoxW9bWXJ_qD-18" value="" style="shape=image;html=1;verticalAlign=top;verticalLabelPosition=bottom;labelBackgroundColor=#ffffff;imageAspect=0;aspect=fixed;image=https://cdn1.iconfinder.com/data/icons/ionicons-fill-vol-2/512/logo-docker-128.png" parent="1" vertex="1">
          <mxGeometry x="50" y="570" width="68" height="68" as="geometry" />
        </mxCell>
        <mxCell id="H6Oon9mDKoxW9bWXJ_qD-21" value="Availability zone" style="sketch=0;outlineConnect=0;gradientColor=none;html=1;whiteSpace=wrap;fontSize=12;fontStyle=0;shape=mxgraph.aws4.group;grIcon=mxgraph.aws4.group_availability_zone;strokeColor=#545B64;fillColor=none;verticalAlign=top;align=left;spacingLeft=30;fontColor=#545B64;dashed=1;" parent="1" vertex="1">
          <mxGeometry x="450" y="138" width="920" height="382" as="geometry" />
        </mxCell>
        <mxCell id="H6Oon9mDKoxW9bWXJ_qD-62" value="" style="edgeStyle=orthogonalEdgeStyle;rounded=0;orthogonalLoop=1;jettySize=auto;html=1;entryX=0;entryY=0.5;entryDx=0;entryDy=0;strokeColor=#005700;fillColor=#008a00;strokeWidth=4;" parent="1" source="H6Oon9mDKoxW9bWXJ_qD-29" target="H6Oon9mDKoxW9bWXJ_qD-35" edge="1">
          <mxGeometry relative="1" as="geometry" />
        </mxCell>
        <mxCell id="H6Oon9mDKoxW9bWXJ_qD-63" style="edgeStyle=orthogonalEdgeStyle;rounded=0;orthogonalLoop=1;jettySize=auto;html=1;strokeColor=#005700;exitX=1;exitY=0.75;exitDx=0;exitDy=0;fillColor=#008a00;strokeWidth=4;" parent="1" source="H6Oon9mDKoxW9bWXJ_qD-29" target="H6Oon9mDKoxW9bWXJ_qD-44" edge="1">
          <mxGeometry relative="1" as="geometry">
            <Array as="points">
              <mxPoint x="740" y="404" />
              <mxPoint x="740" y="460" />
              <mxPoint x="1100" y="460" />
            </Array>
          </mxGeometry>
        </mxCell>
        <mxCell id="H6Oon9mDKoxW9bWXJ_qD-66" style="edgeStyle=orthogonalEdgeStyle;rounded=0;orthogonalLoop=1;jettySize=auto;html=1;fillColor=#d80073;strokeColor=#A50040;strokeWidth=4;" parent="1" source="H6Oon9mDKoxW9bWXJ_qD-29" target="H6Oon9mDKoxW9bWXJ_qD-51" edge="1">
          <mxGeometry relative="1" as="geometry" />
        </mxCell>
        <mxCell id="H6Oon9mDKoxW9bWXJ_qD-71" style="edgeStyle=orthogonalEdgeStyle;rounded=0;orthogonalLoop=1;jettySize=auto;html=1;exitX=0.75;exitY=0;exitDx=0;exitDy=0;fillColor=#a20025;strokeColor=light-dark(#B2CBFF,#B2CBFF);dashed=1;strokeWidth=4;" parent="1" source="H6Oon9mDKoxW9bWXJ_qD-29" target="H6Oon9mDKoxW9bWXJ_qD-52" edge="1">
          <mxGeometry relative="1" as="geometry">
            <Array as="points">
              <mxPoint x="660" y="160" />
              <mxPoint x="1429" y="160" />
            </Array>
          </mxGeometry>
        </mxCell>
        <mxCell id="H6Oon9mDKoxW9bWXJ_qD-31" value="" style="shape=image;verticalLabelPosition=bottom;labelBackgroundColor=default;verticalAlign=top;aspect=fixed;imageAspect=0;image=https://cdn.iconscout.com/icon/free/png-256/free-nginx-3628948-3030173.png;" parent="1" vertex="1">
          <mxGeometry x="132.2" y="560" width="80" height="80" as="geometry" />
        </mxCell>
        <mxCell id="H6Oon9mDKoxW9bWXJ_qD-65" style="edgeStyle=orthogonalEdgeStyle;rounded=0;orthogonalLoop=1;jettySize=auto;html=1;fillColor=#a20025;strokeColor=light-dark(#B2CBFF,#B2CBFF);dashed=1;strokeWidth=4;" parent="1" source="H6Oon9mDKoxW9bWXJ_qD-35" target="H6Oon9mDKoxW9bWXJ_qD-46" edge="1">
          <mxGeometry relative="1" as="geometry">
            <Array as="points">
              <mxPoint x="900" y="220" />
              <mxPoint x="1340" y="220" />
              <mxPoint x="1340" y="514" />
            </Array>
          </mxGeometry>
        </mxCell>
        <mxCell id="H6Oon9mDKoxW9bWXJ_qD-64" style="edgeStyle=orthogonalEdgeStyle;rounded=0;orthogonalLoop=1;jettySize=auto;html=1;entryX=0;entryY=0.25;entryDx=0;entryDy=0;entryPerimeter=0;fillColor=#a20025;strokeColor=light-dark(#B2CBFF,#B2CBFF);dashed=1;strokeWidth=4;" parent="1" source="H6Oon9mDKoxW9bWXJ_qD-44" target="H6Oon9mDKoxW9bWXJ_qD-46" edge="1">
          <mxGeometry relative="1" as="geometry" />
        </mxCell>
        <mxCell id="H6Oon9mDKoxW9bWXJ_qD-54" value="1" style="rounded=1;whiteSpace=wrap;html=1;fillColor=#6C8EBF;strokeColor=#6c8ebf;fontColor=light-dark(#FDFDFD,#FFFFFF);fontSize=18;" parent="1" vertex="1">
          <mxGeometry x="190" y="30" width="30" height="30" as="geometry" />
        </mxCell>
        <mxCell id="H6Oon9mDKoxW9bWXJ_qD-56" value="2" style="rounded=1;whiteSpace=wrap;html=1;fillColor=#6C8EBF;strokeColor=#6c8ebf;fontColor=light-dark(#FDFDFD,#FFFFFF);fontSize=18;" parent="1" vertex="1">
          <mxGeometry x="270" y="125" width="30" height="30" as="geometry" />
        </mxCell>
        <mxCell id="H6Oon9mDKoxW9bWXJ_qD-61" value="3" style="rounded=1;whiteSpace=wrap;html=1;fillColor=#6C8EBF;strokeColor=#6c8ebf;fontColor=light-dark(#FDFDFD,#FFFFFF);fontSize=18;" parent="1" vertex="1">
          <mxGeometry x="500" y="334.75" width="30" height="30" as="geometry" />
        </mxCell>
        <mxCell id="H6Oon9mDKoxW9bWXJ_qD-76" value="" style="group" parent="1" vertex="1" connectable="0">
          <mxGeometry x="520" y="250" width="199.5" height="199.5" as="geometry" />
        </mxCell>
        <mxCell id="H6Oon9mDKoxW9bWXJ_qD-23" value="" style="rounded=1;arcSize=10;dashed=1;strokeColor=#ff0000;fillColor=none;gradientColor=none;dashPattern=8 4;strokeWidth=2;" parent="H6Oon9mDKoxW9bWXJ_qD-76" vertex="1">
          <mxGeometry width="199.5" height="199.5" as="geometry" />
        </mxCell>
        <mxCell id="H6Oon9mDKoxW9bWXJ_qD-29" value="projetocompras-backend-ec2" style="points=[[0,0],[0.25,0],[0.5,0],[0.75,0],[1,0],[1,0.25],[1,0.5],[1,0.75],[1,1],[0.75,1],[0.5,1],[0.25,1],[0,1],[0,0.75],[0,0.5],[0,0.25]];outlineConnect=0;gradientColor=none;html=1;whiteSpace=wrap;fontSize=14;fontStyle=0;container=1;pointerEvents=0;collapsible=0;recursiveResize=0;shape=mxgraph.aws4.group;grIcon=mxgraph.aws4.group_ec2_instance_contents;strokeColor=#D86613;fillColor=none;verticalAlign=top;align=left;spacingLeft=30;fontColor=#D86613;dashed=0;" parent="H6Oon9mDKoxW9bWXJ_qD-76" vertex="1">
          <mxGeometry x="20" y="50" width="160" height="138.1" as="geometry" />
        </mxCell>
        <mxCell id="H6Oon9mDKoxW9bWXJ_qD-75" value="" style="group" parent="H6Oon9mDKoxW9bWXJ_qD-76" vertex="1" connectable="0">
          <mxGeometry x="10" y="8" width="189.5" height="32" as="geometry" />
        </mxCell>
        <mxCell id="H6Oon9mDKoxW9bWXJ_qD-27" value="" style="fillColor=light-dark(#ff8400, #36210a);aspect=fixed;sketch=0;pointerEvents=1;shadow=0;dashed=0;html=1;strokeColor=light-dark(#FCD530,#996500);labelPosition=center;verticalLabelPosition=bottom;outlineConnect=0;verticalAlign=top;align=center;shape=mxgraph.openstack.neutron_securitygroup;" parent="H6Oon9mDKoxW9bWXJ_qD-75" vertex="1">
          <mxGeometry width="32" height="32" as="geometry" />
        </mxCell>
        <mxCell id="H6Oon9mDKoxW9bWXJ_qD-28" value="&lt;span style=&quot;color: light-dark(rgb(0, 0, 0), rgb(0, 0, 0));&quot;&gt;Security Group: projetocompras-backend-sg&lt;/span&gt;" style="text;html=1;align=center;verticalAlign=middle;whiteSpace=wrap;rounded=0;fontSize=13;" parent="H6Oon9mDKoxW9bWXJ_qD-75" vertex="1">
          <mxGeometry x="29.5" y="2" width="160" height="30" as="geometry" />
        </mxCell>
        <mxCell id="H6Oon9mDKoxW9bWXJ_qD-32" value="" style="shape=image;verticalLabelPosition=bottom;labelBackgroundColor=default;verticalAlign=top;aspect=fixed;imageAspect=0;image=https://cdn.iconscout.com/icon/free/png-256/free-nginx-3628948-3030173.png;" parent="H6Oon9mDKoxW9bWXJ_qD-76" vertex="1">
          <mxGeometry x="110" y="110" width="49.18" height="49.18" as="geometry" />
        </mxCell>
        <mxCell id="m0ce2fJHQVsM4_W2PDPC-1" value="" style="shape=image;verticalLabelPosition=bottom;labelBackgroundColor=default;verticalAlign=top;aspect=fixed;imageAspect=0;image=https://img.vivaolinux.com.br/imagens/dicas/comunidade/duckdns.png;" vertex="1" parent="H6Oon9mDKoxW9bWXJ_qD-76">
          <mxGeometry x="40" y="104.59000000000003" width="60" height="60" as="geometry" />
        </mxCell>
        <mxCell id="H6Oon9mDKoxW9bWXJ_qD-78" value="" style="group;fontColor=light-dark(#000000,#000000);" parent="1" vertex="1" connectable="0">
          <mxGeometry x="830" y="250" width="203" height="199.5" as="geometry" />
        </mxCell>
        <mxCell id="H6Oon9mDKoxW9bWXJ_qD-24" value="" style="rounded=1;arcSize=10;dashed=1;strokeColor=#ff0000;fillColor=none;gradientColor=none;dashPattern=8 4;strokeWidth=2;" parent="H6Oon9mDKoxW9bWXJ_qD-78" vertex="1">
          <mxGeometry width="199.5" height="199.5" as="geometry" />
        </mxCell>
        <mxCell id="H6Oon9mDKoxW9bWXJ_qD-35" value="projetocompras-mongodb-ec2" style="points=[[0,0],[0.25,0],[0.5,0],[0.75,0],[1,0],[1,0.25],[1,0.5],[1,0.75],[1,1],[0.75,1],[0.5,1],[0.25,1],[0,1],[0,0.75],[0,0.5],[0,0.25]];outlineConnect=0;gradientColor=none;html=1;whiteSpace=wrap;fontSize=14;fontStyle=0;container=1;pointerEvents=0;collapsible=0;recursiveResize=0;shape=mxgraph.aws4.group;grIcon=mxgraph.aws4.group_ec2_instance_contents;strokeColor=#D86613;fillColor=none;verticalAlign=top;align=left;spacingLeft=30;fontColor=#D86613;dashed=0;" parent="H6Oon9mDKoxW9bWXJ_qD-78" vertex="1">
          <mxGeometry x="19.75" y="50" width="160" height="140" as="geometry" />
        </mxCell>
        <mxCell id="H6Oon9mDKoxW9bWXJ_qD-36" value="" style="dashed=0;outlineConnect=0;html=1;align=center;labelPosition=center;verticalLabelPosition=bottom;verticalAlign=top;shape=mxgraph.weblogos.mongodb" parent="H6Oon9mDKoxW9bWXJ_qD-35" vertex="1">
          <mxGeometry x="58.790000000000006" y="43.17999999999999" width="42.41" height="88.72" as="geometry" />
        </mxCell>
        <mxCell id="H6Oon9mDKoxW9bWXJ_qD-77" value="" style="group;fontColor=light-dark(#000000,#000000);" parent="H6Oon9mDKoxW9bWXJ_qD-78" vertex="1" connectable="0">
          <mxGeometry x="5" y="10" width="198" height="33" as="geometry" />
        </mxCell>
        <mxCell id="H6Oon9mDKoxW9bWXJ_qD-33" value="" style="fillColor=light-dark(#ff8400, #36210a);aspect=fixed;sketch=0;pointerEvents=1;shadow=0;dashed=0;html=1;strokeColor=light-dark(#FCD530,#996500);labelPosition=center;verticalLabelPosition=bottom;outlineConnect=0;verticalAlign=top;align=center;shape=mxgraph.openstack.neutron_securitygroup;" parent="H6Oon9mDKoxW9bWXJ_qD-77" vertex="1">
          <mxGeometry width="32" height="32" as="geometry" />
        </mxCell>
        <mxCell id="H6Oon9mDKoxW9bWXJ_qD-34" value="&lt;span style=&quot;color: light-dark(rgb(0, 0, 0), rgb(0, 0, 0));&quot;&gt;Security Group: projetocompras-mongodb-sg&lt;/span&gt;" style="text;html=1;align=center;verticalAlign=middle;whiteSpace=wrap;rounded=0;fontSize=13;" parent="H6Oon9mDKoxW9bWXJ_qD-77" vertex="1">
          <mxGeometry x="32" y="3" width="166" height="30" as="geometry" />
        </mxCell>
        <mxCell id="H6Oon9mDKoxW9bWXJ_qD-80" value="" style="group" parent="1" vertex="1" connectable="0">
          <mxGeometry x="1090" y="250" width="199.5" height="199.5" as="geometry" />
        </mxCell>
        <mxCell id="H6Oon9mDKoxW9bWXJ_qD-25" value="" style="rounded=1;arcSize=10;dashed=1;strokeColor=#ff0000;fillColor=none;gradientColor=none;dashPattern=8 4;strokeWidth=2;" parent="H6Oon9mDKoxW9bWXJ_qD-80" vertex="1">
          <mxGeometry width="199.5" height="199.5" as="geometry" />
        </mxCell>
        <mxCell id="H6Oon9mDKoxW9bWXJ_qD-44" value="" style="sketch=0;outlineConnect=0;fontColor=#232F3E;gradientColor=none;fillColor=#2FABFF;strokeColor=none;dashed=0;verticalLabelPosition=bottom;verticalAlign=top;align=center;html=1;fontSize=12;fontStyle=0;aspect=fixed;pointerEvents=1;shape=mxgraph.aws4.rds_mysql_instance;" parent="H6Oon9mDKoxW9bWXJ_qD-80" vertex="1">
          <mxGeometry x="49.75" y="70" width="100" height="100" as="geometry" />
        </mxCell>
        <mxCell id="H6Oon9mDKoxW9bWXJ_qD-79" value="" style="group;fontColor=light-dark(#000000,#000000);" parent="H6Oon9mDKoxW9bWXJ_qD-80" vertex="1" connectable="0">
          <mxGeometry x="5" y="11" width="189.5" height="32" as="geometry" />
        </mxCell>
        <mxCell id="H6Oon9mDKoxW9bWXJ_qD-39" value="" style="fillColor=light-dark(#ff8400, #36210a);aspect=fixed;sketch=0;pointerEvents=1;shadow=0;dashed=0;html=1;strokeColor=light-dark(#FCD530,#996500);labelPosition=center;verticalLabelPosition=bottom;outlineConnect=0;verticalAlign=top;align=center;shape=mxgraph.openstack.neutron_securitygroup;" parent="H6Oon9mDKoxW9bWXJ_qD-79" vertex="1">
          <mxGeometry width="32" height="32" as="geometry" />
        </mxCell>
        <mxCell id="H6Oon9mDKoxW9bWXJ_qD-40" value="&lt;span style=&quot;color: light-dark(rgb(0, 0, 0), rgb(0, 0, 0));&quot;&gt;Security Group: projetocompras-rds-sg&lt;/span&gt;" style="text;html=1;align=center;verticalAlign=middle;whiteSpace=wrap;rounded=0;fontSize=13;" parent="H6Oon9mDKoxW9bWXJ_qD-79" vertex="1">
          <mxGeometry x="29.5" y="2" width="160" height="30" as="geometry" />
        </mxCell>
      </root>
    </mxGraphModel>
  </diagram>
</mxfile>
